<svg t="1673180634494" class="icon" viewBox="0 0 1024 1024" version="1.1" xmlns="http://www.w3.org/2000/svg" p-id="7025" width="200" height="200"><path d="M298.666667 145.066667v262.826666s196.266667-95.573333 426.666666 3.413334V162.133333s-170.666667-119.466667-426.666666-17.066666z" fill="#1296db" p-id="7026"></path><path d="M354.986667 665.6l13.653333 8.533333-68.266667 85.333334 163.84 163.84-336.213333 6.826666s-30.72-119.466667 95.573333-196.266666c0 0 100.693333-76.8 131.413334-68.266667zM648.533333 665.6s105.813333 3.413333 197.973334 104.106667c0 0 75.093333 100.693333 49.493333 160.426666L563.2 921.6l-34.133333-17.066667 170.666666-136.533333-56.32-88.746667 5.12-13.653333z" fill="#1296db" p-id="7027"></path><path d="M522.24 650.24c-6.826667 0-13.653333 0-18.773333-1.706667-10.24 0-85.333333 5.12-143.36-46.08-40.96-34.133333-63.146667-83.626667-68.266667-150.186666V138.24l3.413333-1.706667c1.706667-1.706667 245.76-102.4 435.2 17.066667l3.413334 3.413333v314.026667c-1.706667 3.413333-66.56 179.2-211.626667 179.2zM503.466667 631.466667c139.946667 15.36 206.506667-146.773333 213.333333-163.84V167.253333c-165.546667-102.4-373.76-29.013333-409.6-15.36v302.08c5.12 59.733333 25.6 107.52 63.146667 138.24 56.32 46.08 131.413333 39.253333 133.12 39.253334z" fill="#1296db" p-id="7028"></path><path d="M721.92 426.666667c-249.173333-98.986667-418.133333-1.706667-419.84 0l-8.533333-15.36c6.826667-3.413333 177.493333-104.106667 433.493333 0l-5.12 15.36zM911.36 938.666667H112.64v-8.533334c0-5.12-1.706667-11.946667-1.706667-17.066666C110.933333 757.76 290.133333 631.466667 512 631.466667s401.066667 126.293333 401.066667 281.6c0 6.826667 0 11.946667-1.706667 17.066666v8.533334zM128 921.6h768v-8.533333C896 768 723.626667 648.533333 512 648.533333S128 768 128 913.066667v8.533333z" fill="#1296db" p-id="7029"></path><path d="M571.733333 938.666667h-105.813333L286.72 759.466667l80.213333-100.693334 204.8 279.893334z m-98.986666-17.066667h64.853333l-170.666667-233.813333-56.32 69.973333 162.133334 163.84z" fill="#1296db" p-id="7030"></path><path d="M532.48 916.48l-51.2-69.973333 15.36-22.186667 138.24-174.08 76.8 114.346667-179.2 151.893333z m-30.72-69.973333l32.426667 46.08 153.6-129.706667-54.613334-81.92-122.88 155.306667-8.533333 10.24zM571.733333 256h-119.466666c-5.12 0-8.533333-3.413333-8.533334-8.533333s3.413333-8.533333 8.533334-8.533334h119.466666c5.12 0 8.533333 3.413333 8.533334 8.533334s-3.413333 8.533333-8.533334 8.533333z" fill="#1296db" p-id="7031"></path><path d="M520.533333 187.733333v119.466667c0 5.12-3.413333 8.533333-8.533333 8.533333s-8.533333-3.413333-8.533333-8.533333v-119.466667c0-5.12 3.413333-8.533333 8.533333-8.533333s8.533333 3.413333 8.533333 8.533333z" fill="#1296db" p-id="7032"></path></svg>