<svg t="1673180808545" class="icon" viewBox="0 0 1024 1024" version="1.1" xmlns="http://www.w3.org/2000/svg" p-id="713" width="200" height="200"><path d="M879.649869 621.497856 879.649869 357.899296c0-39.653115-21.120017-76.948533-55.114249-97.343025L570.403666 108.085694c-36.029588-21.629623-80.789001-21.629623-116.808356 0L199.44289 260.555248c-33.985022 20.395516-55.105039 57.68991-55.105039 97.343025l0 311.226301c0 39.631626 21.120017 76.927043 55.105039 97.333816l254.152421 152.492066c18.025539 10.80816 38.225603 16.219403 58.415434 16.219403 20.177552 0 40.35715-5.389754 58.329477-16.177448l256.857019-152.836921-0.184195-0.315178c6.157233-3.666506 10.483772-10.114358 10.483772-17.798365 0-11.661597-9.434883-21.096481-21.087271-21.096481-3.948939 0-7.443529 1.384533-10.603499 3.267417l-0.184195-0.291642L548.700365 882.803187c-22.646789 13.588483-50.766221 13.588483-73.411987 0l-254.142188-152.49309c-21.378913-12.818957-34.655288-36.277228-34.655288-61.184501L186.490903 357.899296c0-24.927739 13.276375-48.363498 34.655288-61.184501L475.288378 144.233985c22.645766-13.588483 50.765197-13.588483 73.411987 0l254.141164 152.48081c21.369703 12.821003 34.644031 36.255739 34.644031 61.184501l0 263.61084 0 0.042979c0 11.642155 9.445116 21.078061 21.087271 21.078061 11.641131 0 21.086248-9.435906 21.086248-21.078061C879.660102 621.529579 879.649869 621.519346 879.649869 621.497856z" fill="#1afa29" p-id="714"></path><path d="M419.058726 744.939283c-1.74269 9.327436 0.648776 18.771529 6.589069 25.91216 5.994528 7.228635 15.21247 11.55415 24.668843 11.55415 0.010233 0 0 0 0.010233 0 10.462283 0 19.940145-5.062296 25.838482-13.684674l254.475785-285.97315 2.577708-3.581572c5.526877-9.746992 5.570879-21.36868 0.085958-31.150464-5.031597-8.936533-13.805424-14.745842-23.848151-15.914458L536.386922 389.319913l37.815257-117.002784 1.016143-5.734608c0.323365-8.709359-2.780323-16.899902-8.731872-23.045879-12.723789-13.199627-36.461423-12.07399-47.724954 2.347464l-218.772632 203.451692-3.581572 4.339842c-5.972015 9.671267-6.297426 21.875217-0.844228 31.852452 5.128811 9.359158 14.682397 15.491833 25.264407 16.325827l173.123966 28.717042-74.070996 211.263611L419.058726 744.939283zM538.46321 531.034519l0.855484-3.114944c1.697665-9.185196-0.704035-18.588357-6.610558-25.825179-5.508457-6.709819-13.416568-10.82044-22.019503-11.481496L346.740654 463.411375l173.568081-161.395854-28.465309 88.070848-1.006933 5.66093c-0.335644 8.482185 2.672876 16.576537 8.461719 22.772656 5.1503 5.529947 11.933797 8.972349 19.345604 9.838066l167.17344 41.340547L478.177172 703.024661 538.46321 531.034519z" fill="#1afa29" p-id="715"></path></svg>