<svg t="1673181096294" class="icon" viewBox="0 0 1024 1024" version="1.1" xmlns="http://www.w3.org/2000/svg" p-id="2561" width="200" height="200"><path d="M732.3 210h-10.4c-12.6-54.3-56.8-108-109.7-108H421.6c-52.9 0-97.1 53.7-109.8 108.1h-16.2c-125.2 0-227 101.8-227 227v260.6c0 125.2 101.8 227 227 227h436.7c125.2 0 227-101.8 227-227V437c0-125.1-101.8-227-227-227z m195.8 487.6c0 108-87.8 195.8-195.8 195.8H295.6c-108 0-195.8-87.8-195.8-195.8V437c0-108 87.8-195.8 195.8-195.8h24.3v-0.8h19.3c0-47.3 38.8-107.3 82.3-107.3h190.6c43.6 0 82.3 60 82.3 107.3h10.7v0.8h27.2c108 0 195.8 87.8 195.8 195.8v260.6z" fill="#E9606A" p-id="2562"></path><path d="M666.8 494.9h-80.5v-80.5c0-26.2-21.4-47.6-47.6-47.6h-49.5c-26.2 0-47.6 21.4-47.6 47.6v80.5h-80.5c-26.4 0-47.8 21.4-47.8 47.6V592c0 26.2 21.4 47.6 47.8 47.6h80.5v80.7c0 26.2 21.4 47.6 47.6 47.6h49.5c26.2 0 47.6-21.4 47.6-47.6v-80.7h80.5c26.4 0 47.8-21.4 47.8-47.6v-49.5c0.1-26.2-21.4-47.6-47.8-47.6z m16.7 97.1c0 9.1-7.5 16.4-16.6 16.4H555.2v111.9c0 8.9-7.5 16.4-16.4 16.4h-49.5c-8.9 0-16.4-7.5-16.4-16.4V608.4H361.2c-9.1 0-16.6-7.3-16.6-16.4v-49.5c0-8.9 7.5-16.4 16.6-16.4h111.7V414.4c0-9.1 7.3-16.4 16.4-16.4h49.5c8.9 0 16.4 7.5 16.4 16.4v111.7h111.7c9.1 0 16.6 7.5 16.6 16.4V592z" fill="#E9606A" p-id="2563"></path></svg>