<svg t="1673260802335" class="icon" viewBox="0 0 1024 1024" version="1.1" xmlns="http://www.w3.org/2000/svg" p-id="4407" width="200" height="200"><path d="M421.8 157.7h183.4c22.9-1.8 40.2-22.6 39.1-46.9 0.6-11.9-3.4-23.6-10.9-32.5-7.5-8.9-18.2-14.2-29.5-14.7H421.8c-23.3 1.3-41.2 22.2-40.1 46.9-1.1 24.7 16.9 45.6 40.1 46.9v0.3z m0 0" fill="#FFC697" p-id="4408"></path><path d="M898.9 183.1c0-0.7-0.2-1.3-0.2-1.9-195.5 32.8-362 147.1-541.6 196.1-76.7 30.7-153.4 38.1-230.1 22.5v321.5c275.8-15.1 515.1-139.1 772-198.5V183.1z" fill="#FFA664" p-id="4409" data-spm-anchor-id="a313x.7781069.0.i5" class="selected"></path><path d="M127 721.3v164.8c0.2 40 30.7 72.3 68.5 72.5H830c18.2 0.1 35.8-7.5 48.7-21.1 13-13.6 20.3-32.1 20.3-51.4V522.8c-257 59.4-496.2 183.4-772 198.5z" fill="#FF8B22" p-id="4410" data-spm-anchor-id="a313x.7781069.0.i4" class=""></path><path d="M830.5 110.3H717c-0.1 49.9-38.2 90.3-85.3 90.5H394.9c-47.1-0.2-85.2-40.6-85.3-90.5H195.4c-37.9 0.2-68.5 32.7-68.5 72.8v216.7c76.7 15.6 153.5 8.1 230.2-22.5 179.6-49 346.1-163.3 541.6-196.1-0.9-39.2-31-70.7-68.2-70.9z" fill="#FFC697" p-id="4411"></path><path d="M349.3 637.3h204.8c11.3 0 20.5 9.2 20.5 20.5s-9.2 20.5-20.5 20.5H349.3c-11.3 0-20.5-9.2-20.5-20.5s9.2-20.5 20.5-20.5z m0 0M349.3 719.3H718c11.3 0 20.5 9.2 20.5 20.5s-9.2 20.5-20.5 20.5H349.3c-11.3 0-20.5-9.2-20.5-20.5s9.2-20.5 20.5-20.5z m0 0M358.3 555.4c4.5 0 8.2-3.7 8.2-8.2v-60.3h11.4c4.1 0 8 1.4 11.7 4.1 3.7 2.7 8.3 8.9 14.1 18.4l25.4 42.1c1.5 2.5 4.2 4 7 4h23.8c6.5 0 10.4-7.2 6.9-12.6L441.5 503c-9.9-15.2-18.9-24.2-27.1-27v-0.5c12.3-3.5 22-9.6 29.1-18.2 7-8.6 10.6-18.9 10.6-31 0-32-21.1-48-63.2-48H337c-4.5 0-8.2 3.7-8.2 8.2V547c0 4.5 3.7 8.2 8.2 8.2l21.3 0.2z m26.7-97.3h-10.3c-4.5 0-8.2-3.7-8.2-8.2v-34.5c0-4.5 3.7-8.2 8.2-8.2h11c19.1 0 28.7 8 28.7 24 0 7.7-2.7 14.1-8.1 19.3-5.3 5-12.4 7.6-21.3 7.6z m125.4 97.3c3 0 5.8-1.6 7.2-4.3l16.9-30.9c2.1-3.7 3.8-7.3 5.1-11h0.5c1 2.7 2.8 6.5 5.4 11.3L562 551c1.4 2.7 4.2 4.3 7.2 4.3h22.7c6.5 0 10.4-7.2 6.9-12.7L568.3 495c-1.8-2.8-1.7-6.3 0.1-9.1l30.1-44.3c3.7-5.5-0.2-12.8-6.8-12.8H572c-3 0-5.8 1.7-7.3 4.4l-17 31.9c-2.7 5.3-4.5 9.2-5.3 11.8h-0.4c-1.6-4.3-3.3-8.2-5.1-11.7l-16.4-31.9c-1.4-2.7-4.2-4.5-7.3-4.5h-22.8c-6.5 0-10.4 7.1-6.9 12.6l29.3 46.3c1.8 2.8 1.7 6.3-0.1 9l-31 45.5c-3.7 5.5 0.2 12.8 6.8 12.8h21.9z m4.9 0" fill="#FFFFFF" p-id="4412"></path></svg>