<svg t="1672575854303" class="icon" viewBox="0 0 1024 1024" version="1.1" xmlns="http://www.w3.org/2000/svg" p-id="6441" width="200" height="200"><path d="M412.4 682.74c0-149.31 121.03-270.34 270.34-270.34 24.63 0 48.47 3.29 71.14 9.52V184.74c0-31.39-25.52-56.91-56.91-56.91H184.74c-31.39 0-56.91 25.52-56.91 56.91v597.6c0 31.39 25.52 56.91 56.91 56.91h277.55c-31.39-44.19-49.89-98.17-49.89-156.51zM270.11 241.66H611.6c15.74 0 28.46 12.72 28.46 28.46s-12.72 28.46-28.46 28.46H270.11c-15.74 0-28.46-12.72-28.46-28.46s12.72-28.46 28.46-28.46z m0 170.74h113.83c15.74 0 28.46 12.72 28.46 28.46s-12.72 28.46-28.46 28.46H270.11c-15.74 0-28.46-12.72-28.46-28.46s12.72-28.46 28.46-28.46z m56.92 227.66h-56.91c-15.74 0-28.46-12.72-28.46-28.46s12.72-28.46 28.46-28.46h56.91c15.74 0 28.46 12.72 28.46 28.46s-12.72 28.46-28.46 28.46z m355.71-170.75c-117.83 0-213.43 95.6-213.43 213.43s95.6 213.43 213.43 213.43 213.43-95.6 213.43-213.43-95.59-213.43-213.43-213.43z m95.51 156.96l-85.37 142.29c-4 6.67-10.58 11.38-18.14 13.16-2.05 0.44-4.18 0.71-6.23 0.71-5.6 0-11.12-1.6-15.83-4.8l-85.37-56.91c-13.07-8.72-16.63-26.41-7.91-39.48 8.72-13.07 26.41-16.63 39.48-7.91l60.56 40.37 69.99-116.68c8.09-13.52 25.61-17.87 39.04-9.78 13.52 8.09 17.88 25.52 9.78 39.03z" fill="#16C2A3" p-id="6442"></path></svg>