<svg t="1672575152519" class="icon" viewBox="0 0 1024 1024" version="1.1" xmlns="http://www.w3.org/2000/svg" p-id="1659" id="mx_n_1672575152519" width="200" height="200"><path d="M830.9 98.5H190c-69.9 0-126.8 56.9-126.8 126.8v473.3c0 69.9 56.9 126.8 126.8 126.8h151.7l75.1 79.6c24 25.4 56.5 39.5 91.4 39.7h0.6c34.7 0 67.1-13.8 91.2-38.8l77.3-80.4h153.6c69.9 0 126.8-56.9 126.8-126.8V225.3c0-69.9-56.9-126.8-126.8-126.8z m37.4 600.1c0 20.6-16.8 37.4-37.3 37.4H675.8c-23.3 0-45.9 9.6-62 26.4l-78.3 81.5c-7.1 7.3-16.6 11.4-26.7 11.4h-0.2c-10.2-0.1-19.8-4.2-26.8-11.6L405.7 763c-16.2-17.2-39-27-62.6-27H190c-20.6 0-37.4-16.8-37.4-37.4V225.3c0-20.6 16.8-37.4 37.4-37.4h641c20.6 0 37.3 16.8 37.3 37.4v473.3z" fill="#16C2A3" p-id="1660"></path><path d="M646.2 432.5h-91.1v-91.1c0-24.7-20-44.7-44.7-44.7-24.7 0-44.7 20-44.7 44.7v91.1h-91.1c-24.7 0-44.7 20-44.7 44.7 0 24.7 20 44.7 44.7 44.7h91.1V613c0 24.7 20 44.7 44.7 44.7 24.7 0 44.7-20 44.7-44.7v-91h91.1c24.7 0 44.7-20 44.7-44.7 0.1-24.8-20-44.8-44.7-44.8z" fill="#16C2A3" p-id="1661"></path></svg>