<svg t="1672575721590" class="icon" viewBox="0 0 1024 1024" version="1.1" xmlns="http://www.w3.org/2000/svg" p-id="4741" width="200" height="200"><path d="M509.9008 519.8336m-450.816 0a450.816 450.816 0 1 0 901.632 0 450.816 450.816 0 1 0-901.632 0Z" fill="#FFBC42" p-id="4742"></path><path d="M593.3056 682.24c-29.7472 0-53.9136-24.1664-53.9136-53.9136v-95.9488c0-29.7472 24.1664-53.9136 53.9136-53.9136h202.24V416.6144c0-33.4848-27.136-60.672-60.672-60.672H234.5472v382.0032c0 33.4848 27.136 60.672 60.672 60.672h439.7568c33.4848 0 60.672-27.136 60.672-60.672v-55.7056h-202.3424zM593.3568 241.1008H285.7472c-28.2624 0-51.2 22.9376-51.2 51.2v23.2448h410.0096v-23.2448c0-28.2624-22.9376-51.2-51.2-51.2z" fill="#FFFFFF" p-id="4743"></path><path d="M593.3056 523.776c-7.424 0-13.4656 6.0416-13.4656 13.4656v85.7088c0 7.424 6.0416 13.4656 13.4656 13.4656h202.24v-112.64h-202.24z m39.7312 81.2544c-13.7728 0-24.8832-11.1616-24.8832-24.8832a24.87808 24.87808 0 1 1 49.7664 0c0 13.7216-11.1616 24.8832-24.8832 24.8832z" fill="#FFFFFF" p-id="4744"></path></svg>