<svg t="1672575818250" class="icon" viewBox="0 0 1024 1024" version="1.1" xmlns="http://www.w3.org/2000/svg" p-id="6103" width="200" height="200"><path d="M371.503407 782.449778a89.125926 89.125926 0 0 1-89.106963 89.106963 89.201778 89.201778 0 0 1-89.22074-89.106963 89.239704 89.239704 0 0 1 89.22074-89.220741 89.201778 89.201778 0 0 1 89.106963 89.220741z m499.275852 0a89.125926 89.125926 0 0 1-89.22074 89.106963 89.201778 89.201778 0 0 1-89.220741-89.106963 89.239704 89.239704 0 0 1 178.441481 0z m79.701334-303.881482l-79.701334-141.994666c-16.251259-19.664593-27.32563-35.707259-53.513481-35.70726h-124.814222v-107.008a35.783111 35.783111 0 0 0-35.70726-35.707259H86.167704a35.783111 35.783111 0 0 0-35.70726 35.707259v534.983111c0 19.664593 16.042667 35.707259 35.70726 35.70726h71.092148c8.798815-61.477926 61.174519-108.980148 125.022815-108.980148 63.867259 0 116.337778 47.616 125.022814 108.980148h249.230223c8.798815-61.477926 61.269333-108.980148 125.022815-108.980148 63.848296 0 116.337778 47.616 125.022814 108.980148h35.498667a35.783111 35.783111 0 0 0 35.707259-35.70726v-178.232888c0.018963-33.848889-27.306667-72.040296-27.306666-72.040297z m-222.321778 72.040297v-178.327704H815.407407c5.802667 0 13.767111 8.38163 13.767112 8.38163l75.131259 139.624296c6.618074 9.822815 13.861926 21.428148 13.861926 30.321778h-190.008889z m0 0" fill="#d4237a" p-id="6104"></path></svg>