<svg t="1672575496183" class="icon" viewBox="0 0 1024 1024" version="1.1" xmlns="http://www.w3.org/2000/svg" p-id="2171" width="200" height="200"><path d="M971.392 128H52.608C23.552 128 0 152.576 0 182.848v658.304c0 30.272 23.552 54.848 52.608 54.848h918.784c29.056 0 52.608-24.576 52.608-54.848V182.848c0-30.272-23.552-54.848-52.608-54.848z m-97.856 534.848H598.464c-12.416 0-22.464-11.52-22.464-25.6 0-14.144 10.048-25.6 22.4-25.6h275.2c12.352 0 22.4 11.456 22.4 25.6 0 14.08-10.048 25.6-22.4 25.6z m0-147.712H598.464C586.048 515.2 576 504.32 576 490.944c0-13.312 10.048-24.128 22.4-24.128h275.2c12.352 0 22.4 10.816 22.4 24.128 0 13.44-10.048 24.192-22.4 24.192z m0-142.72H598.464c-12.416 0-22.464-11.52-22.464-25.6 0-14.144 10.048-25.6 22.4-25.6h275.2c12.352 0 22.4 11.456 22.4 25.6 0 14.08-10.048 25.6-22.4 25.6zM288 320a96 96 0 1 1 0 192 96 96 0 0 1 0-192z m-53.952 224c24 7.424 93.12 8.128 107.52 0C407.68 565.824 460.8 629.12 460.8 702.144l-0.128 2.56H128.128L128 702.208c0-74.752 37.376-137.792 106.048-158.144z" fill="#16C2A3" p-id="2172"></path></svg>