<svg t="1672575293033" class="icon" viewBox="0 0 1024 1024" version="1.1" xmlns="http://www.w3.org/2000/svg" p-id="1269" width="200" height="200"><path d="M802.06 142.904c114.603 91.493 134.59 259.459 44.393 374.534l-250.65 319.715c-43.591 55.724-106.558 90.993-176.752 99.032-70.22 7.995-139.518-12.106-195.115-56.466-55.531-44.368-90.726-107.742-99.123-178.453l-0.98-9.618c-5.651-67.265 13.939-133.223 55.575-186.447L302.304 348.3l0.842-1.336 1.629-1.821 5.303-6.735 119.964-153.01c43.647-55.795 106.626-91.098 176.798-99.045 70.414-7.95 139.747 12.133 195.22 56.552zM351.783 417.982L243.931 555.676c-28.461 36.382-42.02 81.104-38.617 127.192l0.106 1.369 0.805 7.886 0.162 1.308c6.16 47.998 29.863 90.672 67.216 121.103l1.425 1.15c38.657 30.844 86.26 44.628 134.702 39.113 47.809-5.475 90.428-29.092 120.496-66.784l1.108-1.403 107.048-136.544-286.6-232.084z m264.277-250.23c-47.704 5.402-90.31 29.015-120.44 66.784l-1.11 1.405-92.175 117.566 286.597 232.08 93.047-118.684c61.77-78.81 48.796-194.132-28.661-258.057l-2.46-1.996c-38.476-30.809-86.08-44.598-134.798-39.098z" fill="#16C2A3" p-id="1270"></path></svg>